ISO-10303-21;
HEADER;
/* Generated by software containing ST-Developer
 * from STEP Tools, Inc. (www.steptools.com) 
 */

FILE_DESCRIPTION(
/* description */ (''),
/* implementation_level */ '2;1');

FILE_NAME(
/* name */ '',
/* time_stamp */ '2026-07-22T02:23:12+08:00',
/* author */ (''),
/* organization */ (''),
/* preprocessor_version */ 'ST-DEVELOPER v20.1',
/* originating_system */ 'Autodesk Translation Framework v15.8.0.0',
/* authorisation */ '');

FILE_SCHEMA (('AUTOMOTIVE_DESIGN { 1 0 10303 214 3 1 1 }'));
ENDSEC;

DATA;
#10=MECHANICAL_DESIGN_GEOMETRIC_PRESENTATION_REPRESENTATION('',(#13),#463);
#11=SHAPE_REPRESENTATION_RELATIONSHIP('SRR','None',#470,#12);
#12=ADVANCED_BREP_SHAPE_REPRESENTATION('',(#14),#462);
#13=STYLED_ITEM('',(#480),#14);
#14=MANIFOLD_SOLID_BREP('\X2\5B9E4F53\X0\1',#269);
#15=FACE_BOUND('',#72,.T.);
#16=FACE_BOUND('',#73,.T.);
#17=FACE_BOUND('',#74,.T.);
#18=FACE_BOUND('',#75,.T.);
#19=FACE_BOUND('',#76,.T.);
#20=FACE_BOUND('',#78,.T.);
#21=FACE_BOUND('',#79,.T.);
#22=FACE_BOUND('',#80,.T.);
#23=FACE_BOUND('',#81,.T.);
#24=FACE_BOUND('',#82,.T.);
#25=CYLINDRICAL_SURFACE('',#290,1.25);
#26=CYLINDRICAL_SURFACE('',#293,1.25);
#27=CYLINDRICAL_SURFACE('',#296,1.25);
#28=CYLINDRICAL_SURFACE('',#299,1.25);
#29=CYLINDRICAL_SURFACE('',#302,4.);
#30=CYLINDRICAL_SURFACE('',#305,17.25);
#31=CIRCLE('',#289,17.25);
#32=CIRCLE('',#291,1.25);
#33=CIRCLE('',#292,1.25);
#34=CIRCLE('',#294,1.25);
#35=CIRCLE('',#295,1.25);
#36=CIRCLE('',#297,1.25);
#37=CIRCLE('',#298,1.25);
#38=CIRCLE('',#300,1.25);
#39=CIRCLE('',#301,1.25);
#40=CIRCLE('',#303,4.);
#41=CIRCLE('',#304,4.);
#42=CIRCLE('',#306,17.25);
#43=CIRCLE('',#307,17.25);
#44=CIRCLE('',#308,17.25);
#45=FACE_OUTER_BOUND('',#59,.T.);
#46=FACE_OUTER_BOUND('',#60,.T.);
#47=FACE_OUTER_BOUND('',#61,.T.);
#48=FACE_OUTER_BOUND('',#62,.T.);
#49=FACE_OUTER_BOUND('',#63,.T.);
#50=FACE_OUTER_BOUND('',#64,.T.);
#51=FACE_OUTER_BOUND('',#65,.T.);
#52=FACE_OUTER_BOUND('',#66,.T.);
#53=FACE_OUTER_BOUND('',#67,.T.);
#54=FACE_OUTER_BOUND('',#68,.T.);
#55=FACE_OUTER_BOUND('',#69,.T.);
#56=FACE_OUTER_BOUND('',#70,.T.);
#57=FACE_OUTER_BOUND('',#71,.T.);
#58=FACE_OUTER_BOUND('',#77,.T.);
#59=EDGE_LOOP('',(#179,#180,#181,#182,#183));
#60=EDGE_LOOP('',(#184,#185,#186,#187));
#61=EDGE_LOOP('',(#188,#189,#190,#191,#192));
#62=EDGE_LOOP('',(#193,#194,#195,#196));
#63=EDGE_LOOP('',(#197,#198,#199,#200));
#64=EDGE_LOOP('',(#201,#202,#203,#204));
#65=EDGE_LOOP('',(#205,#206,#207,#208));
#66=EDGE_LOOP('',(#209,#210,#211,#212));
#67=EDGE_LOOP('',(#213,#214,#215,#216));
#68=EDGE_LOOP('',(#217,#218,#219,#220));
#69=EDGE_LOOP('',(#221,#222,#223,#224));
#70=EDGE_LOOP('',(#225,#226,#227,#228,#229,#230));
#71=EDGE_LOOP('',(#231,#232,#233,#234,#235));
#72=EDGE_LOOP('',(#236));
#73=EDGE_LOOP('',(#237));
#74=EDGE_LOOP('',(#238));
#75=EDGE_LOOP('',(#239));
#76=EDGE_LOOP('',(#240));
#77=EDGE_LOOP('',(#241));
#78=EDGE_LOOP('',(#242));
#79=EDGE_LOOP('',(#243));
#80=EDGE_LOOP('',(#244));
#81=EDGE_LOOP('',(#245));
#82=EDGE_LOOP('',(#246));
#83=LINE('',#393,#103);
#84=LINE('',#395,#104);
#85=LINE('',#397,#105);
#86=LINE('',#399,#106);
#87=LINE('',#400,#107);
#88=LINE('',#403,#108);
#89=LINE('',#405,#109);
#90=LINE('',#406,#110);
#91=LINE('',#410,#111);
#92=LINE('',#411,#112);
#93=LINE('',#413,#113);
#94=LINE('',#414,#114);
#95=LINE('',#416,#115);
#96=LINE('',#417,#116);
#97=LINE('',#425,#117);
#98=LINE('',#431,#118);
#99=LINE('',#437,#119);
#100=LINE('',#443,#120);
#101=LINE('',#449,#121);
#102=LINE('',#456,#122);
#103=VECTOR('',#315,10.);
#104=VECTOR('',#316,10.);
#105=VECTOR('',#317,10.);
#106=VECTOR('',#318,10.);
#107=VECTOR('',#319,10.);
#108=VECTOR('',#322,10.);
#109=VECTOR('',#323,10.);
#110=VECTOR('',#324,10.);
#111=VECTOR('',#327,10.);
#112=VECTOR('',#328,10.);
#113=VECTOR('',#329,10.);
#114=VECTOR('',#330,10.);
#115=VECTOR('',#333,10.);
#116=VECTOR('',#334,10.);
#117=VECTOR('',#345,1.25);
#118=VECTOR('',#352,1.25);
#119=VECTOR('',#359,1.25);
#120=VECTOR('',#366,1.25);
#121=VECTOR('',#373,4.);
#122=VECTOR('',#382,17.25);
#123=VERTEX_POINT('',#391);
#124=VERTEX_POINT('',#392);
#125=VERTEX_POINT('',#394);
#126=VERTEX_POINT('',#396);
#127=VERTEX_POINT('',#398);
#128=VERTEX_POINT('',#402);
#129=VERTEX_POINT('',#404);
#130=VERTEX_POINT('',#408);
#131=VERTEX_POINT('',#409);
#132=VERTEX_POINT('',#412);
#133=VERTEX_POINT('',#422);
#134=VERTEX_POINT('',#424);
#135=VERTEX_POINT('',#428);
#136=VERTEX_POINT('',#430);
#137=VERTEX_POINT('',#434);
#138=VERTEX_POINT('',#436);
#139=VERTEX_POINT('',#440);
#140=VERTEX_POINT('',#442);
#141=VERTEX_POINT('',#446);
#142=VERTEX_POINT('',#448);
#143=VERTEX_POINT('',#452);
#144=VERTEX_POINT('',#455);
#145=EDGE_CURVE('',#123,#124,#83,.T.);
#146=EDGE_CURVE('',#123,#125,#84,.T.);
#147=EDGE_CURVE('',#125,#126,#85,.T.);
#148=EDGE_CURVE('',#127,#126,#86,.T.);
#149=EDGE_CURVE('',#124,#127,#87,.T.);
#150=EDGE_CURVE('',#124,#128,#88,.T.);
#151=EDGE_CURVE('',#129,#127,#89,.T.);
#152=EDGE_CURVE('',#128,#129,#90,.T.);
#153=EDGE_CURVE('',#130,#131,#91,.T.);
#154=EDGE_CURVE('',#128,#131,#92,.T.);
#155=EDGE_CURVE('',#132,#129,#93,.T.);
#156=EDGE_CURVE('',#130,#132,#94,.T.);
#157=EDGE_CURVE('',#125,#130,#95,.T.);
#158=EDGE_CURVE('',#126,#132,#96,.T.);
#159=EDGE_CURVE('',#123,#131,#31,.T.);
#160=EDGE_CURVE('',#133,#133,#32,.T.);
#161=EDGE_CURVE('',#133,#134,#97,.T.);
#162=EDGE_CURVE('',#134,#134,#33,.T.);
#163=EDGE_CURVE('',#135,#135,#34,.T.);
#164=EDGE_CURVE('',#135,#136,#98,.T.);
#165=EDGE_CURVE('',#136,#136,#35,.T.);
#166=EDGE_CURVE('',#137,#137,#36,.T.);
#167=EDGE_CURVE('',#137,#138,#99,.T.);
#168=EDGE_CURVE('',#138,#138,#37,.T.);
#169=EDGE_CURVE('',#139,#139,#38,.T.);
#170=EDGE_CURVE('',#139,#140,#100,.T.);
#171=EDGE_CURVE('',#140,#140,#39,.T.);
#172=EDGE_CURVE('',#141,#141,#40,.T.);
#173=EDGE_CURVE('',#141,#142,#101,.T.);
#174=EDGE_CURVE('',#142,#142,#41,.T.);
#175=EDGE_CURVE('',#131,#143,#42,.T.);
#176=EDGE_CURVE('',#143,#123,#43,.T.);
#177=EDGE_CURVE('',#143,#144,#102,.T.);
#178=EDGE_CURVE('',#144,#144,#44,.T.);
#179=ORIENTED_EDGE('',*,*,#145,.F.);
#180=ORIENTED_EDGE('',*,*,#146,.T.);
#181=ORIENTED_EDGE('',*,*,#147,.T.);
#182=ORIENTED_EDGE('',*,*,#148,.F.);
#183=ORIENTED_EDGE('',*,*,#149,.F.);
#184=ORIENTED_EDGE('',*,*,#150,.F.);
#185=ORIENTED_EDGE('',*,*,#149,.T.);
#186=ORIENTED_EDGE('',*,*,#151,.F.);
#187=ORIENTED_EDGE('',*,*,#152,.F.);
#188=ORIENTED_EDGE('',*,*,#153,.T.);
#189=ORIENTED_EDGE('',*,*,#154,.F.);
#190=ORIENTED_EDGE('',*,*,#152,.T.);
#191=ORIENTED_EDGE('',*,*,#155,.F.);
#192=ORIENTED_EDGE('',*,*,#156,.F.);
#193=ORIENTED_EDGE('',*,*,#157,.T.);
#194=ORIENTED_EDGE('',*,*,#156,.T.);
#195=ORIENTED_EDGE('',*,*,#158,.F.);
#196=ORIENTED_EDGE('',*,*,#147,.F.);
#197=ORIENTED_EDGE('',*,*,#158,.T.);
#198=ORIENTED_EDGE('',*,*,#155,.T.);
#199=ORIENTED_EDGE('',*,*,#151,.T.);
#200=ORIENTED_EDGE('',*,*,#148,.T.);
#201=ORIENTED_EDGE('',*,*,#159,.T.);
#202=ORIENTED_EDGE('',*,*,#153,.F.);
#203=ORIENTED_EDGE('',*,*,#157,.F.);
#204=ORIENTED_EDGE('',*,*,#146,.F.);
#205=ORIENTED_EDGE('',*,*,#160,.T.);
#206=ORIENTED_EDGE('',*,*,#161,.T.);
#207=ORIENTED_EDGE('',*,*,#162,.F.);
#208=ORIENTED_EDGE('',*,*,#161,.F.);
#209=ORIENTED_EDGE('',*,*,#163,.T.);
#210=ORIENTED_EDGE('',*,*,#164,.T.);
#211=ORIENTED_EDGE('',*,*,#165,.F.);
#212=ORIENTED_EDGE('',*,*,#164,.F.);
#213=ORIENTED_EDGE('',*,*,#166,.T.);
#214=ORIENTED_EDGE('',*,*,#167,.T.);
#215=ORIENTED_EDGE('',*,*,#168,.F.);
#216=ORIENTED_EDGE('',*,*,#167,.F.);
#217=ORIENTED_EDGE('',*,*,#169,.T.);
#218=ORIENTED_EDGE('',*,*,#170,.T.);
#219=ORIENTED_EDGE('',*,*,#171,.F.);
#220=ORIENTED_EDGE('',*,*,#170,.F.);
#221=ORIENTED_EDGE('',*,*,#172,.T.);
#222=ORIENTED_EDGE('',*,*,#173,.T.);
#223=ORIENTED_EDGE('',*,*,#174,.F.);
#224=ORIENTED_EDGE('',*,*,#173,.F.);
#225=ORIENTED_EDGE('',*,*,#175,.F.);
#226=ORIENTED_EDGE('',*,*,#159,.F.);
#227=ORIENTED_EDGE('',*,*,#176,.F.);
#228=ORIENTED_EDGE('',*,*,#177,.T.);
#229=ORIENTED_EDGE('',*,*,#178,.T.);
#230=ORIENTED_EDGE('',*,*,#177,.F.);
#231=ORIENTED_EDGE('',*,*,#154,.T.);
#232=ORIENTED_EDGE('',*,*,#175,.T.);
#233=ORIENTED_EDGE('',*,*,#176,.T.);
#234=ORIENTED_EDGE('',*,*,#145,.T.);
#235=ORIENTED_EDGE('',*,*,#150,.T.);
#236=ORIENTED_EDGE('',*,*,#174,.T.);
#237=ORIENTED_EDGE('',*,*,#171,.T.);
#238=ORIENTED_EDGE('',*,*,#168,.T.);
#239=ORIENTED_EDGE('',*,*,#165,.T.);
#240=ORIENTED_EDGE('',*,*,#162,.T.);
#241=ORIENTED_EDGE('',*,*,#178,.F.);
#242=ORIENTED_EDGE('',*,*,#172,.F.);
#243=ORIENTED_EDGE('',*,*,#169,.F.);
#244=ORIENTED_EDGE('',*,*,#166,.F.);
#245=ORIENTED_EDGE('',*,*,#163,.F.);
#246=ORIENTED_EDGE('',*,*,#160,.F.);
#247=PLANE('',#283);
#248=PLANE('',#284);
#249=PLANE('',#285);
#250=PLANE('',#286);
#251=PLANE('',#287);
#252=PLANE('',#288);
#253=PLANE('',#309);
#254=PLANE('',#310);
#255=ADVANCED_FACE('',(#45),#247,.T.);
#256=ADVANCED_FACE('',(#46),#248,.T.);
#257=ADVANCED_FACE('',(#47),#249,.T.);
#258=ADVANCED_FACE('',(#48),#250,.T.);
#259=ADVANCED_FACE('',(#49),#251,.T.);
#260=ADVANCED_FACE('',(#50),#252,.F.);
#261=ADVANCED_FACE('',(#51),#25,.F.);
#262=ADVANCED_FACE('',(#52),#26,.F.);
#263=ADVANCED_FACE('',(#53),#27,.F.);
#264=ADVANCED_FACE('',(#54),#28,.F.);
#265=ADVANCED_FACE('',(#55),#29,.F.);
#266=ADVANCED_FACE('',(#56),#30,.T.);
#267=ADVANCED_FACE('',(#57,#15,#16,#17,#18,#19),#253,.T.);
#268=ADVANCED_FACE('',(#58,#20,#21,#22,#23,#24),#254,.F.);
#269=CLOSED_SHELL('',(#255,#256,#257,#258,#259,#260,#261,#262,#263,#264,
#265,#266,#267,#268));
#270=DERIVED_UNIT_ELEMENT(#272,1.);
#271=DERIVED_UNIT_ELEMENT(#465,-3.);
#272=(
MASS_UNIT()
NAMED_UNIT(*)
SI_UNIT(.KILO.,.GRAM.)
);
#273=DERIVED_UNIT((#270,#271));
#274=MEASURE_REPRESENTATION_ITEM('density measure',
POSITIVE_RATIO_MEASURE(7850.),#273);
#275=PROPERTY_DEFINITION_REPRESENTATION(#280,#277);
#276=PROPERTY_DEFINITION_REPRESENTATION(#281,#278);
#277=REPRESENTATION('material name',(#279),#462);
#278=REPRESENTATION('density',(#274),#462);
#279=DESCRIPTIVE_REPRESENTATION_ITEM('\X2\94A2\X0\','\X2\94A2\X0\');
#280=PROPERTY_DEFINITION('material property','material name',#472);
#281=PROPERTY_DEFINITION('material property','density of part',#472);
#282=AXIS2_PLACEMENT_3D('',#389,#311,#312);
#283=AXIS2_PLACEMENT_3D('',#390,#313,#314);
#284=AXIS2_PLACEMENT_3D('',#401,#320,#321);
#285=AXIS2_PLACEMENT_3D('',#407,#325,#326);
#286=AXIS2_PLACEMENT_3D('',#415,#331,#332);
#287=AXIS2_PLACEMENT_3D('',#418,#335,#336);
#288=AXIS2_PLACEMENT_3D('',#419,#337,#338);
#289=AXIS2_PLACEMENT_3D('',#420,#339,#340);
#290=AXIS2_PLACEMENT_3D('',#421,#341,#342);
#291=AXIS2_PLACEMENT_3D('',#423,#343,#344);
#292=AXIS2_PLACEMENT_3D('',#426,#346,#347);
#293=AXIS2_PLACEMENT_3D('',#427,#348,#349);
#294=AXIS2_PLACEMENT_3D('',#429,#350,#351);
#295=AXIS2_PLACEMENT_3D('',#432,#353,#354);
#296=AXIS2_PLACEMENT_3D('',#433,#355,#356);
#297=AXIS2_PLACEMENT_3D('',#435,#357,#358);
#298=AXIS2_PLACEMENT_3D('',#438,#360,#361);
#299=AXIS2_PLACEMENT_3D('',#439,#362,#363);
#300=AXIS2_PLACEMENT_3D('',#441,#364,#365);
#301=AXIS2_PLACEMENT_3D('',#444,#367,#368);
#302=AXIS2_PLACEMENT_3D('',#445,#369,#370);
#303=AXIS2_PLACEMENT_3D('',#447,#371,#372);
#304=AXIS2_PLACEMENT_3D('',#450,#374,#375);
#305=AXIS2_PLACEMENT_3D('',#451,#376,#377);
#306=AXIS2_PLACEMENT_3D('',#453,#378,#379);
#307=AXIS2_PLACEMENT_3D('',#454,#380,#381);
#308=AXIS2_PLACEMENT_3D('',#457,#383,#384);
#309=AXIS2_PLACEMENT_3D('',#458,#385,#386);
#310=AXIS2_PLACEMENT_3D('',#459,#387,#388);
#311=DIRECTION('axis',(0.,0.,1.));
#312=DIRECTION('refdir',(1.,0.,0.));
#313=DIRECTION('center_axis',(0.,-1.,0.));
#314=DIRECTION('ref_axis',(1.,0.,0.));
#315=DIRECTION('',(-1.,0.,0.));
#316=DIRECTION('',(1.,0.,0.));
#317=DIRECTION('',(0.,0.,1.));
#318=DIRECTION('',(1.,0.,0.));
#319=DIRECTION('',(0.,0.,1.));
#320=DIRECTION('center_axis',(-1.,0.,0.));
#321=DIRECTION('ref_axis',(0.,-1.,0.));
#322=DIRECTION('',(0.,1.,0.));
#323=DIRECTION('',(0.,-1.,0.));
#324=DIRECTION('',(0.,0.,1.));
#325=DIRECTION('center_axis',(0.,1.,0.));
#326=DIRECTION('ref_axis',(-1.,0.,0.));
#327=DIRECTION('',(-1.,0.,0.));
#328=DIRECTION('',(1.,0.,0.));
#329=DIRECTION('',(-1.,0.,0.));
#330=DIRECTION('',(0.,0.,1.));
#331=DIRECTION('center_axis',(1.,0.,0.));
#332=DIRECTION('ref_axis',(0.,1.,0.));
#333=DIRECTION('',(0.,1.,0.));
#334=DIRECTION('',(0.,1.,0.));
#335=DIRECTION('center_axis',(0.,0.,1.));
#336=DIRECTION('ref_axis',(1.,0.,0.));
#337=DIRECTION('center_axis',(0.,0.,1.));
#338=DIRECTION('ref_axis',(1.,0.,0.));
#339=DIRECTION('center_axis',(0.,0.,1.));
#340=DIRECTION('ref_axis',(1.,0.,0.));
#341=DIRECTION('center_axis',(0.,0.,1.));
#342=DIRECTION('ref_axis',(1.,0.,0.));
#343=DIRECTION('center_axis',(0.,0.,-1.));
#344=DIRECTION('ref_axis',(1.,0.,0.));
#345=DIRECTION('',(0.,0.,1.));
#346=DIRECTION('center_axis',(0.,0.,-1.));
#347=DIRECTION('ref_axis',(1.,0.,0.));
#348=DIRECTION('center_axis',(0.,0.,1.));
#349=DIRECTION('ref_axis',(1.,0.,0.));
#350=DIRECTION('center_axis',(0.,0.,-1.));
#351=DIRECTION('ref_axis',(1.,0.,0.));
#352=DIRECTION('',(0.,0.,1.));
#353=DIRECTION('center_axis',(0.,0.,-1.));
#354=DIRECTION('ref_axis',(1.,0.,0.));
#355=DIRECTION('center_axis',(0.,0.,1.));
#356=DIRECTION('ref_axis',(1.,0.,0.));
#357=DIRECTION('center_axis',(0.,0.,-1.));
#358=DIRECTION('ref_axis',(1.,0.,0.));
#359=DIRECTION('',(0.,0.,1.));
#360=DIRECTION('center_axis',(0.,0.,-1.));
#361=DIRECTION('ref_axis',(1.,0.,0.));
#362=DIRECTION('center_axis',(0.,0.,1.));
#363=DIRECTION('ref_axis',(1.,0.,0.));
#364=DIRECTION('center_axis',(0.,0.,-1.));
#365=DIRECTION('ref_axis',(1.,0.,0.));
#366=DIRECTION('',(0.,0.,1.));
#367=DIRECTION('center_axis',(0.,0.,-1.));
#368=DIRECTION('ref_axis',(1.,0.,0.));
#369=DIRECTION('center_axis',(0.,0.,1.));
#370=DIRECTION('ref_axis',(1.,0.,0.));
#371=DIRECTION('center_axis',(0.,0.,-1.));
#372=DIRECTION('ref_axis',(1.,0.,0.));
#373=DIRECTION('',(0.,0.,1.));
#374=DIRECTION('center_axis',(0.,0.,-1.));
#375=DIRECTION('ref_axis',(1.,0.,0.));
#376=DIRECTION('center_axis',(0.,0.,1.));
#377=DIRECTION('ref_axis',(1.,0.,0.));
#378=DIRECTION('center_axis',(0.,0.,1.));
#379=DIRECTION('ref_axis',(1.,0.,0.));
#380=DIRECTION('center_axis',(0.,0.,1.));
#381=DIRECTION('ref_axis',(1.,0.,0.));
#382=DIRECTION('',(0.,0.,-1.));
#383=DIRECTION('center_axis',(0.,0.,1.));
#384=DIRECTION('ref_axis',(1.,0.,0.));
#385=DIRECTION('center_axis',(0.,0.,1.));
#386=DIRECTION('ref_axis',(1.,0.,0.));
#387=DIRECTION('center_axis',(0.,0.,1.));
#388=DIRECTION('ref_axis',(1.,0.,0.));
#389=CARTESIAN_POINT('',(0.,0.,0.));
#390=CARTESIAN_POINT('Origin',(1.39637239658153,12.8298965479293,64.0423513976145));
#391=CARTESIAN_POINT('',(3.12686882498811,12.8298965479293,64.0423513976145));
#392=CARTESIAN_POINT('',(1.39637239658153,12.8298965479293,64.0423513976145));
#393=CARTESIAN_POINT('',(-6.22860718326056,12.8298965479293,64.0423513976145));
#394=CARTESIAN_POINT('',(5.39637239658152,12.8298965479293,64.0423513976145));
#395=CARTESIAN_POINT('',(1.39637239658153,12.8298965479293,64.0423513976145));
#396=CARTESIAN_POINT('',(5.39637239658152,12.8298965479293,65.5423513976145));
#397=CARTESIAN_POINT('',(5.39637239658152,12.8298965479293,64.0423513976145));
#398=CARTESIAN_POINT('',(1.39637239658153,12.8298965479293,65.5423513976145));
#399=CARTESIAN_POINT('',(1.39637239658153,12.8298965479293,65.5423513976145));
#400=CARTESIAN_POINT('',(1.39637239658153,12.8298965479293,64.0423513976145));
#401=CARTESIAN_POINT('Origin',(1.39637239658153,18.8298965479293,64.0423513976145));
#402=CARTESIAN_POINT('',(1.39637239658153,18.8298965479293,64.0423513976145));
#403=CARTESIAN_POINT('',(1.39637239658153,17.3486648005668,64.0423513976145));
#404=CARTESIAN_POINT('',(1.39637239658153,18.8298965479293,65.5423513976145));
#405=CARTESIAN_POINT('',(1.39637239658153,18.8298965479293,65.5423513976145));
#406=CARTESIAN_POINT('',(1.39637239658153,18.8298965479293,64.0423513976145));
#407=CARTESIAN_POINT('Origin',(5.39637239658152,18.8298965479293,64.0423513976145));
#408=CARTESIAN_POINT('',(5.39637239658152,18.8298965479293,64.0423513976145));
#409=CARTESIAN_POINT('',(3.14012707591505,18.8298965479293,64.0423513976145));
#410=CARTESIAN_POINT('',(5.39637239658152,18.8298965479293,64.0423513976145));
#411=CARTESIAN_POINT('',(-4.22860718326056,18.8298965479293,64.0423513976145));
#412=CARTESIAN_POINT('',(5.39637239658152,18.8298965479293,65.5423513976145));
#413=CARTESIAN_POINT('',(5.39637239658152,18.8298965479293,65.5423513976145));
#414=CARTESIAN_POINT('',(5.39637239658152,18.8298965479293,64.0423513976145));
#415=CARTESIAN_POINT('Origin',(5.39637239658152,12.8298965479293,64.0423513976145));
#416=CARTESIAN_POINT('',(5.39637239658152,12.8298965479293,64.0423513976145));
#417=CARTESIAN_POINT('',(5.39637239658152,12.8298965479293,65.5423513976145));
#418=CARTESIAN_POINT('Origin',(3.39637239658153,15.8298965479293,65.5423513976145));
#419=CARTESIAN_POINT('Origin',(3.39637239658153,15.8298965479293,64.0423513976145));
#420=CARTESIAN_POINT('Origin',(-13.8535867631026,15.8674330532042,64.0423513976145));
#421=CARTESIAN_POINT('Origin',(-7.13607308688855,22.5849482195344,60.0423513976146));
#422=CARTESIAN_POINT('',(-8.38607308688855,22.5849482195344,60.0423513976146));
#423=CARTESIAN_POINT('Origin',(-7.13607308688855,22.5849482195344,60.0423513976146));
#424=CARTESIAN_POINT('',(-8.38607308688855,22.5849482195344,64.0423513976145));
#425=CARTESIAN_POINT('',(-8.38607308688855,22.5849482195344,60.0423513976146));
#426=CARTESIAN_POINT('Origin',(-7.13607308688855,22.5849482195344,64.0423513976145));
#427=CARTESIAN_POINT('Origin',(-7.13607308688855,9.149917886874,60.0423513976146));
#428=CARTESIAN_POINT('',(-8.38607308688855,9.149917886874,60.0423513976146));
#429=CARTESIAN_POINT('Origin',(-7.13607308688855,9.149917886874,60.0423513976146));
#430=CARTESIAN_POINT('',(-8.38607308688855,9.149917886874,64.0423513976145));
#431=CARTESIAN_POINT('',(-8.38607308688855,9.149917886874,60.0423513976146));
#432=CARTESIAN_POINT('Origin',(-7.13607308688855,9.149917886874,64.0423513976145));
#433=CARTESIAN_POINT('Origin',(-20.5711019294329,9.14991937699012,60.0423513976146));
#434=CARTESIAN_POINT('',(-21.8211019294329,9.14991937699012,60.0423513976146));
#435=CARTESIAN_POINT('Origin',(-20.5711019294329,9.14991937699012,60.0423513976146));
#436=CARTESIAN_POINT('',(-21.8211019294329,9.14991937699012,64.0423513976145));
#437=CARTESIAN_POINT('',(-21.8211019294329,9.14991937699012,60.0423513976146));
#438=CARTESIAN_POINT('Origin',(-20.5711019294329,9.14991937699012,64.0423513976145));
#439=CARTESIAN_POINT('Origin',(-20.5711019294329,22.5849467294183,60.0423513976146));
#440=CARTESIAN_POINT('',(-21.8211019294329,22.5849467294183,60.0423513976146));
#441=CARTESIAN_POINT('Origin',(-20.5711019294329,22.5849467294183,60.0423513976146));
#442=CARTESIAN_POINT('',(-21.8211019294329,22.5849467294183,64.0423513976145));
#443=CARTESIAN_POINT('',(-21.8211019294329,22.5849467294183,60.0423513976146));
#444=CARTESIAN_POINT('Origin',(-20.5711019294329,22.5849467294183,64.0423513976145));
#445=CARTESIAN_POINT('Origin',(-13.8535867631026,15.8674330532042,60.0423513976146));
#446=CARTESIAN_POINT('',(-17.8535867631027,15.8674330532042,60.0423513976146));
#447=CARTESIAN_POINT('Origin',(-13.8535867631026,15.8674330532042,60.0423513976146));
#448=CARTESIAN_POINT('',(-17.8535867631027,15.8674330532042,64.0423513976145));
#449=CARTESIAN_POINT('',(-17.8535867631026,15.8674330532042,60.0423513976146));
#450=CARTESIAN_POINT('Origin',(-13.8535867631026,15.8674330532042,64.0423513976145));
#451=CARTESIAN_POINT('Origin',(-13.8535867631026,15.8674330532042,60.0423513976146));
#452=CARTESIAN_POINT('',(-31.1035867631026,15.8674330532042,64.0423513976145));
#453=CARTESIAN_POINT('Origin',(-13.8535867631026,15.8674330532042,64.0423513976145));
#454=CARTESIAN_POINT('Origin',(-13.8535867631026,15.8674330532042,64.0423513976145));
#455=CARTESIAN_POINT('',(-31.1035867631027,15.8674330532042,60.0423513976146));
#456=CARTESIAN_POINT('',(-31.1035867631026,15.8674330532042,60.0423513976146));
#457=CARTESIAN_POINT('Origin',(-13.8535867631026,15.8674330532042,60.0423513976146));
#458=CARTESIAN_POINT('Origin',(-13.8535867631026,15.8674330532042,64.0423513976145));
#459=CARTESIAN_POINT('Origin',(-13.8535867631026,15.8674330532042,60.0423513976146));
#460=UNCERTAINTY_MEASURE_WITH_UNIT(LENGTH_MEASURE(0.01),#464,
'DISTANCE_ACCURACY_VALUE',
'Maximum model space distance between geometric entities at asserted c
onnectivities');
#461=UNCERTAINTY_MEASURE_WITH_UNIT(LENGTH_MEASURE(0.01),#464,
'DISTANCE_ACCURACY_VALUE',
'Maximum model space distance between geometric entities at asserted c
onnectivities');
#462=(
GEOMETRIC_REPRESENTATION_CONTEXT(3)
GLOBAL_UNCERTAINTY_ASSIGNED_CONTEXT((#460))
GLOBAL_UNIT_ASSIGNED_CONTEXT((#464,#466,#467))
REPRESENTATION_CONTEXT('','3D')
);
#463=(
GEOMETRIC_REPRESENTATION_CONTEXT(3)
GLOBAL_UNCERTAINTY_ASSIGNED_CONTEXT((#461))
GLOBAL_UNIT_ASSIGNED_CONTEXT((#464,#466,#467))
REPRESENTATION_CONTEXT('','3D')
);
#464=(
LENGTH_UNIT()
NAMED_UNIT(*)
SI_UNIT(.MILLI.,.METRE.)
);
#465=(
LENGTH_UNIT()
NAMED_UNIT(*)
SI_UNIT($,.METRE.)
);
#466=(
NAMED_UNIT(*)
PLANE_ANGLE_UNIT()
SI_UNIT($,.RADIAN.)
);
#467=(
NAMED_UNIT(*)
SI_UNIT($,.STERADIAN.)
SOLID_ANGLE_UNIT()
);
#468=SHAPE_DEFINITION_REPRESENTATION(#469,#470);
#469=PRODUCT_DEFINITION_SHAPE('',$,#472);
#470=SHAPE_REPRESENTATION('',(#282),#462);
#471=PRODUCT_DEFINITION_CONTEXT('part definition',#476,'design');
#472=PRODUCT_DEFINITION('2026-07-22-02-23-12-569','2804\X2\5B9A5B50\X0\',
#473,#471);
#473=PRODUCT_DEFINITION_FORMATION('',$,#478);
#474=PRODUCT_RELATED_PRODUCT_CATEGORY('2804\X2\5B9A5B50\X0\',
'2804\X2\5B9A5B50\X0\',(#478));
#475=APPLICATION_PROTOCOL_DEFINITION('international standard',
'automotive_design',2009,#476);
#476=APPLICATION_CONTEXT(
'Core Data for Automotive Mechanical Design Process');
#477=PRODUCT_CONTEXT('part definition',#476,'mechanical');
#478=PRODUCT('2026-07-22-02-23-12-569','2804\X2\5B9A5B50\X0\',$,(#477));
#479=PRESENTATION_STYLE_ASSIGNMENT((#481));
#480=PRESENTATION_STYLE_ASSIGNMENT((#482));
#481=SURFACE_STYLE_USAGE(.BOTH.,#483);
#482=SURFACE_STYLE_USAGE(.BOTH.,#484);
#483=SURFACE_SIDE_STYLE('',(#485));
#484=SURFACE_SIDE_STYLE('',(#486));
#485=SURFACE_STYLE_FILL_AREA(#487);
#486=SURFACE_STYLE_FILL_AREA(#488);
#487=FILL_AREA_STYLE('\X2\94A2\X0\ - \X2\7F0E5149\X0\',(#489));
#488=FILL_AREA_STYLE('Opaque(160,160,160)',(#490));
#489=FILL_AREA_STYLE_COLOUR('\X2\94A2\X0\ - \X2\7F0E5149\X0\',#491);
#490=FILL_AREA_STYLE_COLOUR('Opaque(160,160,160)',#492);
#491=COLOUR_RGB('\X2\94A2\X0\ - \X2\7F0E5149\X0\',0.627450980392157,0.627450980392157,
0.627450980392157);
#492=COLOUR_RGB('Opaque(160,160,160)',0.627450980392157,0.627450980392157,
0.627450980392157);
ENDSEC;
END-ISO-10303-21;
